# xmcd CD database file
#
# Track frame offsets:
#	150
#	19017
#	32261
#	53430
#	76300
#	95689
#	114458
#	131923
#	145644
#	164253
#
# Disc length: 2557 seconds
#
# Revision: 2
# Processed by: cddbd v1.5.2PL0 Copyright (c) Steve Scherf et al.
# Submitted via: CDex 1.60beta1-cs1
#
DISCID=7309fb0a
DTITLE=Ella Fitzgerald and Joe Pass - Speak Love [1983]
DYEAR=1983
DGENRE=Jazz
TTITLE0=Speak low
TTITLE1=Comes love
TTITLE2=There's no you
TTITLE3=I may be wrong (but I think you're wonderful!)
TTITLE4=At last
TTITLE5=The thrill is gone (Medley)
TTITLE6=Gone with the wind
TTITLE7=Blue and sentimental
TTITLE8=Girl talk
TTITLE9=Georgia on my mind
EXTD=YEAR: 1983
EXTT0=
EXTT1=
EXTT2=
EXTT3=
EXTT4=
EXTT5=
EXTT6=
EXTT7=
EXTT8=
EXTT9=
PLAYORDER=
